<svg class="bob" font-family="arial" font-size="14" height="1136" width="368" xmlns="http://www.w3.org/2000/svg">
<defs>
<marker id="triangle" markerHeight="10" markerUnits="strokeWidth" markerWidth="10" orient="auto" refX="15" refY="10" viewBox="0 0 50 20">
<path d="M 0 0 L 30 10 L 0 20 z"/>
</marker>
</defs>
<style>

    line, path {
      stroke: black;
      stroke-width: 2;
      stroke-opacity: 1;
      fill-opacity: 1;
      stroke-linecap: round;
      stroke-linejoin: miter;
    }
    circle {
      stroke: black;
      stroke-width: 2;
      stroke-opacity: 1;
      fill-opacity: 1;
      stroke-linecap: round;
      stroke-linejoin: miter;
    }
    circle.solid {
      fill:black;
    }
    circle.open {
      fill:transparent;
    }
    tspan.head{
        fill: none;
        stroke: none;
    }
    
</style>
<path d=" M 4 56 L 8 56 M 4 56 L 4 64 M 8 56 L 16 56 M 8 56 L 16 56 L 24 56 M 16 56 L 24 56 L 32 56 M 24 56 L 32 56 M 36 56 L 32 56 M 36 56 L 40 56 M 36 56 L 36 64 M 40 56 L 48 56 M 40 56 L 48 56 L 56 56 M 48 56 L 56 56 L 64 56 M 56 56 L 64 56 M 68 56 L 64 56 M 68 56 L 72 56 M 68 56 L 68 64 M 72 56 L 80 56 M 72 56 L 80 56 L 88 56 M 80 56 L 88 56 L 96 56 M 88 56 L 96 56 M 100 56 L 96 56 M 100 56 L 104 56 M 100 56 L 100 64 M 104 56 L 112 56 M 104 56 L 112 56 L 120 56 M 112 56 L 120 56 L 128 56 M 120 56 L 128 56 M 132 56 L 128 56 M 132 56 L 136 56 M 132 56 L 132 64 M 136 56 L 144 56 M 136 56 L 144 56 L 152 56 M 144 56 L 152 56 L 160 56 M 152 56 L 160 56 M 164 56 L 160 56 M 164 56 L 164 64 M 4 64 L 4 80 M 4 64 L 4 80 M 36 64 L 36 80 M 36 64 L 36 80 M 68 64 L 68 80 M 68 64 L 68 80 M 100 64 L 100 80 M 100 64 L 100 80 M 132 64 L 132 80 M 132 64 L 132 80 M 164 64 L 164 80 M 164 64 L 164 80 M 4 88 L 4 80 M 4 88 L 8 88 L 16 88 M 8 88 L 16 88 L 24 88 M 16 88 L 24 88 L 32 88 M 24 88 L 32 88 M 36 88 L 36 80 M 36 88 L 32 88 M 36 88 L 40 88 L 48 88 M 40 88 L 48 88 L 56 88 M 48 88 L 56 88 L 64 88 M 56 88 L 64 88 M 68 88 L 68 80 M 68 88 L 64 88 M 68 88 L 72 88 L 80 88 M 72 88 L 80 88 L 88 88 M 80 88 L 88 88 L 96 88 M 88 88 L 96 88 M 100 88 L 100 80 M 100 88 L 96 88 M 100 88 L 104 88 L 112 88 M 104 88 L 112 88 L 120 88 M 112 88 L 120 88 L 128 88 M 120 88 L 128 88 M 132 88 L 132 80 M 132 88 L 128 88 M 132 88 L 136 88 L 144 88 M 136 88 L 144 88 L 152 88 M 144 88 L 152 88 L 160 88 M 152 88 L 160 88 M 164 88 L 164 80 M 164 88 L 160 88 M 4 168 L 8 168 M 4 168 L 4 176 M 8 168 L 16 168 M 8 168 L 16 168 L 24 168 M 16 168 L 24 168 L 32 168 M 24 168 L 32 168 M 36 168 L 32 168 M 36 168 L 40 168 M 36 168 L 36 176 M 40 168 L 48 168 M 40 168 L 48 168 L 56 168 M 48 168 L 56 168 L 64 168 M 56 168 L 64 168 M 68 168 L 64 168 M 68 168 L 72 168 M 68 168 L 68 176 M 72 168 L 80 168 M 72 168 L 80 168 L 88 168 M 80 168 L 88 168 L 96 168 M 88 168 L 96 168 M 100 168 L 96 168 M 100 168 L 104 168 M 100 168 L 100 176 M 104 168 L 112 168 M 104 168 L 112 168 L 120 168 M 112 168 L 120 168 L 128 168 M 120 168 L 128 168 M 132 168 L 128 168 M 132 168 L 136 168 M 132 168 L 132 176 M 136 168 L 144 168 M 136 168 L 144 168 L 152 168 M 144 168 L 152 168 L 160 168 M 152 168 L 160 168 M 164 168 L 160 168 M 164 168 L 164 176 M 4 176 L 4 192 M 4 176 L 4 192 M 36 176 L 36 192 M 36 176 L 36 192 M 68 176 L 68 192 M 68 176 L 68 192 M 100 176 L 100 192 M 100 176 L 100 192 M 132 176 L 132 192 M 132 176 L 132 192 M 164 176 L 164 192 M 164 176 L 164 192 M 4 200 L 4 192 M 4 200 L 8 200 L 16 200 M 8 200 L 16 200 L 24 200 M 16 200 L 24 200 L 32 200 M 24 200 L 32 200 M 36 200 L 36 192 M 36 200 L 32 200 M 36 200 L 40 200 L 48 200 M 40 200 L 48 200 L 56 200 M 48 200 L 56 200 L 64 200 M 56 200 L 64 200 M 68 200 L 68 192 M 68 200 L 64 200 M 68 200 L 72 200 L 80 200 M 72 200 L 80 200 L 88 200 M 80 200 L 88 200 L 96 200 M 88 200 L 96 200 M 100 200 L 100 192 M 100 200 L 96 200 M 100 200 L 104 200 L 112 200 M 104 200 L 112 200 L 120 200 M 112 200 L 120 200 L 128 200 M 120 200 L 128 200 M 132 200 L 132 192 M 132 200 L 128 200 M 132 200 L 136 200 L 144 200 M 136 200 L 144 200 L 152 200 M 144 200 L 152 200 L 160 200 M 152 200 L 160 200 M 164 200 L 164 192 M 164 200 L 160 200 M 64 288 L 72 272 L 64 288 M 88 288 L 80 272 L 88 288 M 56 304 L 64 288 L 56 304 M 96 304 L 88 288 L 96 304 M 40 368 L 48 352 L 40 368 M 64 368 L 56 352 L 64 368 M 32 384 L 40 368 L 32 384 M 72 384 L 64 368 L 72 384 M 4 504 L 8 504 M 4 504 L 4 512 M 8 504 L 16 504 M 8 504 L 16 504 L 24 504 M 16 504 L 24 504 L 32 504 M 24 504 L 32 504 M 36 504 L 32 504 M 36 504 L 40 504 M 36 504 L 36 512 M 40 504 L 48 504 M 40 504 L 48 504 L 56 504 M 48 504 L 56 504 L 64 504 M 56 504 L 64 504 M 68 504 L 64 504 M 68 504 L 72 504 M 68 504 L 68 512 M 72 504 L 80 504 M 72 504 L 80 504 L 88 504 M 80 504 L 88 504 L 96 504 M 88 504 L 96 504 M 100 504 L 96 504 M 100 504 L 104 504 M 100 504 L 100 512 M 104 504 L 112 504 M 104 504 L 112 504 L 120 504 M 112 504 L 120 504 L 128 504 M 120 504 L 128 504 M 132 504 L 128 504 M 132 504 L 136 504 M 132 504 L 132 512 M 136 504 L 144 504 M 136 504 L 144 504 L 152 504 M 144 504 L 152 504 L 160 504 M 152 504 L 160 504 M 164 504 L 160 504 M 164 504 L 164 512 M 204 504 L 204 496 M 204 504 L 208 504 M 204 504 L 204 512 M 208 504 L 216 504 M 208 504 L 216 504 L 224 504 M 216 504 L 224 504 L 232 504 M 224 504 L 232 504 M 236 504 L 232 504 M 236 504 L 240 504 M 236 504 L 236 512 M 240 504 L 248 504 M 240 504 L 248 504 L 256 504 M 248 504 L 256 504 L 264 504 M 256 504 L 264 504 M 268 504 L 264 504 M 268 504 L 272 504 M 268 504 L 268 512 M 272 504 L 280 504 M 272 504 L 280 504 L 288 504 M 280 504 L 288 504 L 296 504 M 288 504 L 296 504 M 300 504 L 296 504 M 300 504 L 304 504 M 300 504 L 300 512 M 304 504 L 312 504 M 304 504 L 312 504 L 320 504 M 312 504 L 320 504 L 328 504 M 320 504 L 328 504 M 332 504 L 328 504 M 332 504 L 336 504 M 332 504 L 332 512 M 336 504 L 344 504 M 336 504 L 344 504 L 352 504 M 344 504 L 352 504 L 360 504 M 352 504 L 360 504 M 364 504 L 360 504 M 364 504 L 364 512 M 4 512 L 4 528 M 4 512 L 4 528 M 36 512 L 36 528 M 36 512 L 36 528 M 68 512 L 68 528 M 68 512 L 68 528 M 100 512 L 100 528 M 100 512 L 100 528 M 132 512 L 132 528 M 132 512 L 132 528 M 164 512 L 164 528 M 164 512 L 164 528 M 204 512 L 204 528 M 204 512 L 204 528 M 236 512 L 236 528 M 236 512 L 236 528 M 268 512 L 268 528 M 268 512 L 268 528 M 300 512 L 300 528 M 300 512 L 300 528 M 332 512 L 332 528 M 332 512 L 332 528 M 364 512 L 364 528 M 364 512 L 364 528 M 4 536 L 4 528 M 4 536 L 8 536 L 16 536 M 8 536 L 16 536 L 24 536 M 16 536 L 24 536 L 32 536 M 24 536 L 32 536 M 36 536 L 36 528 M 36 536 L 32 536 M 36 536 L 40 536 L 48 536 M 40 536 L 48 536 L 56 536 M 48 536 L 56 536 L 64 536 M 56 536 L 64 536 M 68 536 L 68 528 M 68 536 L 64 536 M 68 536 L 72 536 L 80 536 M 72 536 L 80 536 L 88 536 M 80 536 L 88 536 L 96 536 M 88 536 L 96 536 M 100 536 L 100 528 M 100 536 L 96 536 M 100 536 L 104 536 L 112 536 M 104 536 L 112 536 L 120 536 M 112 536 L 120 536 L 128 536 M 120 536 L 128 536 M 132 536 L 132 528 M 132 536 L 128 536 M 132 536 L 136 536 L 144 536 M 136 536 L 144 536 L 152 536 M 144 536 L 152 536 L 160 536 M 152 536 L 160 536 M 164 536 L 164 528 M 164 536 L 160 536 M 204 536 L 204 528 M 204 536 L 208 536 L 216 536 M 208 536 L 216 536 L 224 536 M 216 536 L 224 536 L 232 536 M 224 536 L 232 536 M 236 536 L 236 528 M 236 536 L 232 536 M 236 536 L 240 536 L 248 536 M 240 536 L 248 536 L 256 536 M 248 536 L 256 536 L 264 536 M 256 536 L 264 536 M 268 536 L 268 528 M 268 536 L 264 536 M 268 536 L 272 536 L 280 536 M 272 536 L 280 536 L 288 536 M 280 536 L 288 536 L 296 536 M 288 536 L 296 536 M 300 536 L 300 528 M 300 536 L 296 536 M 300 536 L 304 536 L 312 536 M 304 536 L 312 536 L 320 536 M 312 536 L 320 536 L 328 536 M 320 536 L 328 536 M 332 536 L 332 528 M 332 536 L 328 536 M 332 536 L 336 536 L 344 536 M 336 536 L 344 536 L 352 536 M 344 536 L 352 536 L 360 536 M 352 536 L 360 536 M 364 536 L 364 528 M 364 536 L 360 536 M 64 624 L 72 608 L 64 624 M 88 624 L 80 608 L 88 624 M 56 640 L 64 624 L 56 640 M 96 640 L 88 624 L 96 640 M 40 704 L 48 688 L 40 704 M 32 720 L 40 704 L 32 720 M 4 840 L 8 840 M 4 840 L 4 848 M 8 840 L 16 840 M 8 840 L 16 840 L 24 840 M 16 840 L 24 840 L 32 840 M 24 840 L 32 840 M 36 840 L 32 840 M 36 840 L 40 840 M 36 840 L 36 848 M 40 840 L 48 840 M 40 840 L 48 840 L 56 840 M 48 840 L 56 840 L 64 840 M 56 840 L 64 840 M 68 840 L 64 840 M 68 840 L 72 840 M 68 840 L 68 848 M 72 840 L 80 840 M 72 840 L 80 840 L 88 840 M 80 840 L 88 840 L 96 840 M 88 840 L 96 840 M 100 840 L 96 840 M 100 840 L 104 840 M 100 840 L 100 848 M 104 840 L 112 840 M 104 840 L 112 840 L 120 840 M 112 840 L 120 840 L 128 840 M 120 840 L 128 840 M 132 840 L 128 840 M 132 840 L 136 840 M 132 840 L 132 848 M 136 840 L 144 840 M 136 840 L 144 840 L 152 840 M 144 840 L 152 840 L 160 840 M 152 840 L 160 840 M 164 840 L 160 840 M 164 840 L 164 848 M 204 840 L 204 832 M 204 840 L 208 840 M 204 840 L 204 848 M 208 840 L 216 840 M 208 840 L 216 840 L 224 840 M 216 840 L 224 840 L 232 840 M 224 840 L 232 840 M 236 840 L 232 840 M 236 840 L 240 840 M 236 840 L 236 848 M 240 840 L 248 840 M 240 840 L 248 840 L 256 840 M 248 840 L 256 840 L 264 840 M 256 840 L 264 840 M 268 840 L 264 840 M 268 840 L 272 840 M 268 840 L 268 848 M 272 840 L 280 840 M 272 840 L 280 840 L 288 840 M 280 840 L 288 840 L 296 840 M 288 840 L 296 840 M 300 840 L 296 840 M 300 840 L 304 840 M 300 840 L 300 848 M 304 840 L 312 840 M 304 840 L 312 840 L 320 840 M 312 840 L 320 840 L 328 840 M 320 840 L 328 840 M 332 840 L 328 840 M 332 840 L 336 840 M 332 840 L 332 848 M 336 840 L 344 840 M 336 840 L 344 840 L 352 840 M 344 840 L 352 840 L 360 840 M 352 840 L 360 840 M 364 840 L 360 840 M 364 840 L 364 848 M 4 848 L 4 864 M 4 848 L 4 864 M 36 848 L 36 864 M 36 848 L 36 864 M 68 848 L 68 864 M 68 848 L 68 864 M 100 848 L 100 864 M 100 848 L 100 864 M 132 848 L 132 864 M 132 848 L 132 864 M 164 848 L 164 864 M 164 848 L 164 864 M 204 848 L 204 864 M 204 848 L 204 864 M 236 848 L 236 864 M 236 848 L 236 864 M 268 848 L 268 864 M 268 848 L 268 864 M 300 848 L 300 864 M 300 848 L 300 864 M 332 848 L 332 864 M 332 848 L 332 864 M 364 848 L 364 864 M 364 848 L 364 864 M 4 872 L 4 864 M 4 872 L 8 872 L 16 872 M 8 872 L 16 872 L 24 872 M 16 872 L 24 872 L 32 872 M 24 872 L 32 872 M 36 872 L 36 864 M 36 872 L 32 872 M 36 872 L 40 872 L 48 872 M 40 872 L 48 872 L 56 872 M 48 872 L 56 872 L 64 872 M 56 872 L 64 872 M 68 872 L 68 864 M 68 872 L 64 872 M 68 872 L 72 872 L 80 872 M 72 872 L 80 872 L 88 872 M 80 872 L 88 872 L 96 872 M 88 872 L 96 872 M 100 872 L 100 864 M 100 872 L 96 872 M 100 872 L 104 872 L 112 872 M 104 872 L 112 872 L 120 872 M 112 872 L 120 872 L 128 872 M 120 872 L 128 872 M 132 872 L 132 864 M 132 872 L 128 872 M 132 872 L 136 872 L 144 872 M 136 872 L 144 872 L 152 872 M 144 872 L 152 872 L 160 872 M 152 872 L 160 872 M 164 872 L 164 864 M 164 872 L 160 872 M 204 872 L 204 864 M 204 872 L 208 872 L 216 872 M 208 872 L 216 872 L 224 872 M 216 872 L 224 872 L 232 872 M 224 872 L 232 872 M 236 872 L 236 864 M 236 872 L 232 872 M 236 872 L 240 872 L 248 872 M 240 872 L 248 872 L 256 872 M 248 872 L 256 872 L 264 872 M 256 872 L 264 872 M 268 872 L 268 864 M 268 872 L 264 872 M 268 872 L 272 872 L 280 872 M 272 872 L 280 872 L 288 872 M 280 872 L 288 872 L 296 872 M 288 872 L 296 872 M 300 872 L 300 864 M 300 872 L 296 872 M 300 872 L 304 872 L 312 872 M 304 872 L 312 872 L 320 872 M 312 872 L 320 872 L 328 872 M 320 872 L 328 872 M 332 872 L 332 864 M 332 872 L 328 872 M 332 872 L 336 872 L 344 872 M 336 872 L 344 872 L 352 872 M 344 872 L 352 872 L 360 872 M 352 872 L 360 872 M 364 872 L 364 864 M 364 872 L 360 872 M 64 960 L 72 944 L 64 960 M 88 960 L 80 944 L 88 960 M 56 976 L 64 960 L 56 976 M 96 976 L 88 960 L 96 976 M 4 1096 L 8 1096 M 4 1096 L 4 1104 M 8 1096 L 16 1096 M 8 1096 L 16 1096 L 24 1096 M 16 1096 L 24 1096 L 32 1096 M 24 1096 L 32 1096 M 36 1096 L 32 1096 M 36 1096 L 40 1096 M 36 1096 L 36 1104 M 40 1096 L 48 1096 M 40 1096 L 48 1096 L 56 1096 M 48 1096 L 56 1096 L 64 1096 M 56 1096 L 64 1096 M 68 1096 L 64 1096 M 68 1096 L 72 1096 M 68 1096 L 68 1104 M 72 1096 L 80 1096 M 72 1096 L 80 1096 L 88 1096 M 80 1096 L 88 1096 L 96 1096 M 88 1096 L 96 1096 M 100 1096 L 96 1096 M 100 1096 L 104 1096 M 100 1096 L 100 1104 M 104 1096 L 112 1096 M 104 1096 L 112 1096 L 120 1096 M 112 1096 L 120 1096 L 128 1096 M 120 1096 L 128 1096 M 132 1096 L 128 1096 M 132 1096 L 136 1096 M 132 1096 L 132 1104 M 136 1096 L 144 1096 M 136 1096 L 144 1096 L 152 1096 M 144 1096 L 152 1096 L 160 1096 M 152 1096 L 160 1096 M 164 1096 L 160 1096 M 164 1096 L 164 1104 M 204 1096 L 204 1088 M 204 1096 L 208 1096 M 204 1096 L 204 1104 M 208 1096 L 216 1096 M 208 1096 L 216 1096 L 224 1096 M 216 1096 L 224 1096 L 232 1096 M 224 1096 L 232 1096 M 236 1096 L 232 1096 M 236 1096 L 240 1096 M 236 1096 L 236 1104 M 240 1096 L 248 1096 M 240 1096 L 248 1096 L 256 1096 M 248 1096 L 256 1096 L 264 1096 M 256 1096 L 264 1096 M 268 1096 L 264 1096 M 268 1096 L 272 1096 M 268 1096 L 268 1104 M 272 1096 L 280 1096 M 272 1096 L 280 1096 L 288 1096 M 280 1096 L 288 1096 L 296 1096 M 288 1096 L 296 1096 M 300 1096 L 296 1096 M 300 1096 L 304 1096 M 300 1096 L 300 1104 M 304 1096 L 312 1096 M 304 1096 L 312 1096 L 320 1096 M 312 1096 L 320 1096 L 328 1096 M 320 1096 L 328 1096 M 332 1096 L 328 1096 M 332 1096 L 336 1096 M 332 1096 L 332 1104 M 336 1096 L 344 1096 M 336 1096 L 344 1096 L 352 1096 M 344 1096 L 352 1096 L 360 1096 M 352 1096 L 360 1096 M 364 1096 L 360 1096 M 364 1096 L 364 1104 M 4 1104 L 4 1120 M 4 1104 L 4 1120 M 36 1104 L 36 1120 M 36 1104 L 36 1120 M 68 1104 L 68 1120 M 68 1104 L 68 1120 M 100 1104 L 100 1120 M 100 1104 L 100 1120 M 132 1104 L 132 1120 M 132 1104 L 132 1120 M 164 1104 L 164 1120 M 164 1104 L 164 1120 M 204 1104 L 204 1120 M 204 1104 L 204 1120 M 236 1104 L 236 1120 M 236 1104 L 236 1120 M 268 1104 L 268 1120 M 268 1104 L 268 1120 M 300 1104 L 300 1120 M 300 1104 L 300 1120 M 332 1104 L 332 1120 M 332 1104 L 332 1120 M 364 1104 L 364 1120 M 364 1104 L 364 1120 M 4 1128 L 4 1120 M 4 1128 L 8 1128 L 16 1128 M 8 1128 L 16 1128 L 24 1128 M 16 1128 L 24 1128 L 32 1128 M 24 1128 L 32 1128 M 36 1128 L 36 1120 M 36 1128 L 32 1128 M 36 1128 L 40 1128 L 48 1128 M 40 1128 L 48 1128 L 56 1128 M 48 1128 L 56 1128 L 64 1128 M 56 1128 L 64 1128 M 68 1128 L 68 1120 M 68 1128 L 64 1128 M 68 1128 L 72 1128 L 80 1128 M 72 1128 L 80 1128 L 88 1128 M 80 1128 L 88 1128 L 96 1128 M 88 1128 L 96 1128 M 100 1128 L 100 1120 M 100 1128 L 96 1128 M 100 1128 L 104 1128 L 112 1128 M 104 1128 L 112 1128 L 120 1128 M 112 1128 L 120 1128 L 128 1128 M 120 1128 L 128 1128 M 132 1128 L 132 1120 M 132 1128 L 128 1128 M 132 1128 L 136 1128 L 144 1128 M 136 1128 L 144 1128 L 152 1128 M 144 1128 L 152 1128 L 160 1128 M 152 1128 L 160 1128 M 164 1128 L 164 1120 M 164 1128 L 160 1128 M 204 1128 L 204 1120 M 204 1128 L 208 1128 L 216 1128 M 208 1128 L 216 1128 L 224 1128 M 216 1128 L 224 1128 L 232 1128 M 224 1128 L 232 1128 M 236 1128 L 236 1120 M 236 1128 L 232 1128 M 236 1128 L 240 1128 L 248 1128 M 240 1128 L 248 1128 L 256 1128 M 248 1128 L 256 1128 L 264 1128 M 256 1128 L 264 1128 M 268 1128 L 268 1120 M 268 1128 L 264 1128 M 268 1128 L 272 1128 L 280 1128 M 272 1128 L 280 1128 L 288 1128 M 280 1128 L 288 1128 L 296 1128 M 288 1128 L 296 1128 M 300 1128 L 300 1120 M 300 1128 L 296 1128 M 300 1128 L 304 1128 L 312 1128 M 304 1128 L 312 1128 L 320 1128 M 312 1128 L 320 1128 L 328 1128 M 320 1128 L 328 1128 M 332 1128 L 332 1120 M 332 1128 L 328 1128 M 332 1128 L 336 1128 L 344 1128 M 336 1128 L 344 1128 L 352 1128 M 344 1128 L 352 1128 L 360 1128 M 352 1128 L 360 1128 M 364 1128 L 364 1120 M 364 1128 L 360 1128" fill="none"/>
<path d="" fill="none" stroke-dasharray="3 3"/>
<text x="1" y="12">
1.
</text>
<text x="1" y="44">
Input:
</text>
<text x="17" y="76">
5
</text>
<text x="49" y="76">
2
</text>
<text x="81" y="76">
9
</text>
<text x="113" y="76">
4
</text>
<text x="145" y="76">
7
</text>
<text x="1" y="124">
2.
</text>
<text x="1" y="156">
Heap:
</text>
<text x="17" y="188">
2
</text>
<text x="49" y="188">
5
</text>
<text x="81" y="188">
4
</text>
<text x="113" y="188">
9
</text>
<text x="145" y="188">
7
</text>
<text x="73" y="252">
2
</text>
<text x="49" y="332">
5
</text>
<text x="97" y="332">
4
</text>
<text x="25" y="412">
9
</text>
<text x="73" y="412">
7
</text>
<text x="1" y="460">
3.
</text>
<text x="1" y="492">
Heap:
</text>
<text x="201" y="492">
Output:
</text>
<text x="17" y="524">
4
</text>
<text x="49" y="524">
5
</text>
<text x="81" y="524">
9
</text>
<text x="113" y="524">
7
</text>
<text x="217" y="524">
2
</text>
<text x="73" y="588">
4
</text>
<text x="49" y="668">
5
</text>
<text x="97" y="668">
9
</text>
<text x="25" y="748">
7
</text>
<text x="1" y="796">
4.
</text>
<text x="1" y="828">
Heap:
</text>
<text x="201" y="828">
Output:
</text>
<text x="17" y="860">
5
</text>
<text x="49" y="860">
9
</text>
<text x="81" y="860">
7
</text>
<text x="217" y="860">
2
</text>
<text x="249" y="860">
4
</text>
<text x="73" y="924">
5
</text>
<text x="49" y="1004">
7
</text>
<text x="97" y="1004">
9
</text>
<text x="1" y="1052">
n.
</text>
<text x="1" y="1084">
Heap:
</text>
<text x="201" y="1084">
Output:
</text>
<text x="217" y="1116">
2
</text>
<text x="249" y="1116">
4
</text>
<text x="281" y="1116">
5
</text>
<text x="313" y="1116">
7
</text>
<text x="345" y="1116">
9
</text>
<circle class="open" cx="76" cy="248" r="16"/>
<circle class="open" cx="52" cy="328" r="16"/>
<circle class="open" cx="100" cy="328" r="16"/>
<circle class="open" cx="28" cy="408" r="16"/>
<circle class="open" cx="76" cy="408" r="16"/>
<circle class="open" cx="76" cy="584" r="16"/>
<circle class="open" cx="52" cy="664" r="16"/>
<circle class="open" cx="100" cy="664" r="16"/>
<circle class="open" cx="28" cy="744" r="16"/>
<circle class="open" cx="76" cy="920" r="16"/>
<circle class="open" cx="52" cy="1000" r="16"/>
<circle class="open" cx="100" cy="1000" r="16"/>
</svg>
