<svg class="bob" font-family="arial" font-size="14" height="1152" width="168" xmlns="http://www.w3.org/2000/svg">
<defs>
<marker id="triangle" markerHeight="10" markerUnits="strokeWidth" markerWidth="10" orient="auto" refX="15" refY="10" viewBox="0 0 50 20">
<path d="M 0 0 L 30 10 L 0 20 z"/>
</marker>
</defs>
<style>

    line, path {
      stroke: black;
      stroke-width: 2;
      stroke-opacity: 1;
      fill-opacity: 1;
      stroke-linecap: round;
      stroke-linejoin: miter;
    }
    circle {
      stroke: black;
      stroke-width: 2;
      stroke-opacity: 1;
      fill-opacity: 1;
      stroke-linecap: round;
      stroke-linejoin: miter;
    }
    circle.solid {
      fill:black;
    }
    circle.open {
      fill:transparent;
    }
    tspan.head{
        fill: none;
        stroke: none;
    }
    
</style>
<path d=" M 4 40 L 8 40 M 4 40 L 4 48 M 8 40 L 16 40 M 8 40 L 16 40 L 24 40 M 16 40 L 24 40 L 32 40 M 24 40 L 32 40 M 36 40 L 32 40 M 36 40 L 40 40 M 36 40 L 36 48 M 40 40 L 48 40 M 40 40 L 48 40 L 56 40 M 48 40 L 56 40 L 64 40 M 56 40 L 64 40 M 68 40 L 64 40 M 68 40 L 72 40 M 68 40 L 68 48 M 72 40 L 80 40 M 72 40 L 80 40 L 88 40 M 80 40 L 88 40 L 96 40 M 88 40 L 96 40 M 100 40 L 96 40 M 100 40 L 104 40 M 100 40 L 100 48 M 104 40 L 112 40 M 104 40 L 112 40 L 120 40 M 112 40 L 120 40 L 128 40 M 120 40 L 128 40 M 132 40 L 128 40 M 132 40 L 136 40 M 132 40 L 132 48 M 136 40 L 144 40 M 136 40 L 144 40 L 152 40 M 144 40 L 152 40 L 160 40 M 152 40 L 160 40 M 164 40 L 160 40 M 164 40 L 164 48 M 4 48 L 4 64 M 4 48 L 4 64 M 36 48 L 36 64 M 36 48 L 36 64 M 68 48 L 68 64 M 68 48 L 68 64 M 100 48 L 100 64 M 100 48 L 100 64 M 132 48 L 132 64 M 132 48 L 132 64 M 164 48 L 164 64 M 164 48 L 164 64 M 4 72 L 4 64 M 4 72 L 8 72 L 16 72 M 8 72 L 16 72 L 24 72 M 16 72 L 24 72 L 32 72 M 24 72 L 32 72 M 36 72 L 36 64 M 36 72 L 32 72 M 36 72 L 40 72 L 48 72 M 40 72 L 48 72 L 56 72 M 48 72 L 56 72 L 64 72 M 56 72 L 64 72 M 68 72 L 68 64 M 68 72 L 64 72 M 68 72 L 72 72 L 80 72 M 72 72 L 80 72 L 88 72 M 80 72 L 88 72 L 96 72 M 88 72 L 96 72 M 100 72 L 100 64 M 100 72 L 96 72 M 100 72 L 104 72 L 112 72 M 104 72 L 112 72 L 120 72 M 112 72 L 120 72 L 128 72 M 120 72 L 128 72 M 132 72 L 132 64 M 132 72 L 128 72 M 132 72 L 136 72 L 144 72 M 136 72 L 144 72 L 152 72 M 144 72 L 152 72 L 160 72 M 152 72 L 160 72 M 164 72 L 164 64 M 164 72 L 160 72 M 164 128 L 164 144 M 164 128 L 164 144 M 4 152 L 8 152 M 4 152 L 4 160 M 8 152 L 16 152 M 8 152 L 16 152 L 24 152 M 16 152 L 24 152 L 32 152 M 24 152 L 32 152 M 36 152 L 32 152 M 36 152 L 40 152 M 36 152 L 36 160 M 40 152 L 48 152 M 40 152 L 48 152 L 56 152 M 48 152 L 56 152 L 64 152 M 56 152 L 64 152 M 68 152 L 64 152 M 68 152 L 72 152 M 68 152 L 68 160 M 72 152 L 80 152 M 72 152 L 80 152 L 88 152 M 80 152 L 88 152 L 96 152 M 88 152 L 96 152 M 100 152 L 96 152 M 100 152 L 104 152 M 100 152 L 100 160 M 104 152 L 112 152 M 104 152 L 112 152 L 120 152 M 112 152 L 120 152 L 128 152 M 120 152 L 128 152 M 132 152 L 128 152 M 132 152 L 136 152 M 132 152 L 132 160 M 136 152 L 144 152 M 136 152 L 144 152 L 152 152 M 144 152 L 152 152 L 160 152 M 152 152 L 160 152 M 164 152 L 164 144 M 164 152 L 160 152 M 164 152 L 164 160 M 4 160 L 4 176 M 4 160 L 4 176 M 36 160 L 36 176 M 36 160 L 36 176 M 68 160 L 68 176 M 68 160 L 68 176 M 100 160 L 100 176 M 100 160 L 100 176 M 132 160 L 132 176 M 132 160 L 132 176 M 164 160 L 164 176 M 164 160 L 164 176 M 4 184 L 4 176 M 4 184 L 8 184 L 16 184 M 8 184 L 16 184 L 24 184 M 16 184 L 24 184 L 32 184 M 24 184 L 32 184 M 36 184 L 36 176 M 36 184 L 32 184 M 36 184 L 40 184 L 48 184 M 40 184 L 48 184 L 56 184 M 48 184 L 56 184 L 64 184 M 56 184 L 64 184 M 68 184 L 68 176 M 68 184 L 64 184 M 68 184 L 72 184 L 80 184 M 72 184 L 80 184 L 88 184 M 80 184 L 88 184 L 96 184 M 88 184 L 96 184 M 100 184 L 100 176 M 100 184 L 96 184 M 100 184 L 104 184 L 112 184 M 104 184 L 112 184 L 120 184 M 112 184 L 120 184 L 128 184 M 120 184 L 128 184 M 132 184 L 132 176 M 132 184 L 128 184 M 132 184 L 136 184 L 144 184 M 136 184 L 144 184 L 152 184 M 144 184 L 152 184 L 160 184 M 152 184 L 160 184 M 164 184 L 164 176 M 164 184 L 160 184 M 164 184 L 164 192 L 164 208 M 164 192 L 164 208 M 64 272 L 72 256 L 64 272 M 88 272 L 80 256 L 88 272 M 56 288 L 64 272 L 56 288 M 96 288 L 88 272 L 96 288 M 40 352 L 48 336 L 40 352 M 64 352 L 56 336 L 64 352 M 32 368 L 40 352 L 32 368 M 72 368 L 64 352 L 72 368 M 132 464 L 132 480 M 132 464 L 132 480 M 4 488 L 8 488 M 4 488 L 4 496 M 8 488 L 16 488 M 8 488 L 16 488 L 24 488 M 16 488 L 24 488 L 32 488 M 24 488 L 32 488 M 36 488 L 32 488 M 36 488 L 40 488 M 36 488 L 36 496 M 40 488 L 48 488 M 40 488 L 48 488 L 56 488 M 48 488 L 56 488 L 64 488 M 56 488 L 64 488 M 68 488 L 64 488 M 68 488 L 72 488 M 68 488 L 68 496 M 72 488 L 80 488 M 72 488 L 80 488 L 88 488 M 80 488 L 88 488 L 96 488 M 88 488 L 96 488 M 100 488 L 96 488 M 100 488 L 104 488 M 100 488 L 100 496 M 104 488 L 112 488 M 104 488 L 112 488 L 120 488 M 112 488 L 120 488 L 128 488 M 120 488 L 128 488 M 132 488 L 132 480 M 132 488 L 128 488 M 132 488 L 136 488 M 132 488 L 132 496 M 136 488 L 144 488 M 136 488 L 144 488 L 152 488 M 144 488 L 152 488 L 160 488 M 152 488 L 160 488 M 164 488 L 160 488 M 164 488 L 164 496 M 4 496 L 4 512 M 4 496 L 4 512 M 36 496 L 36 512 M 36 496 L 36 512 M 68 496 L 68 512 M 68 496 L 68 512 M 100 496 L 100 512 M 100 496 L 100 512 M 132 496 L 132 512 M 132 496 L 132 512 M 164 496 L 164 512 M 164 496 L 164 512 M 4 520 L 4 512 M 4 520 L 8 520 L 16 520 M 8 520 L 16 520 L 24 520 M 16 520 L 24 520 L 32 520 M 24 520 L 32 520 M 36 520 L 36 512 M 36 520 L 32 520 M 36 520 L 40 520 L 48 520 M 40 520 L 48 520 L 56 520 M 48 520 L 56 520 L 64 520 M 56 520 L 64 520 M 68 520 L 68 512 M 68 520 L 64 520 M 68 520 L 72 520 L 80 520 M 72 520 L 80 520 L 88 520 M 80 520 L 88 520 L 96 520 M 88 520 L 96 520 M 100 520 L 100 512 M 100 520 L 96 520 M 100 520 L 104 520 L 112 520 M 104 520 L 112 520 L 120 520 M 112 520 L 120 520 L 128 520 M 120 520 L 128 520 M 132 520 L 132 512 M 132 520 L 128 520 M 132 520 L 136 520 M 132 520 L 132 528 M 136 520 L 144 520 M 136 520 L 144 520 L 152 520 M 144 520 L 152 520 L 160 520 M 152 520 L 160 520 M 164 520 L 164 512 M 164 520 L 160 520 M 132 528 L 132 544 M 132 528 L 132 544 M 64 624 L 72 608 L 64 624 M 88 624 L 80 608 L 88 624 M 56 640 L 64 624 L 56 640 M 96 640 L 88 624 L 96 640 M 40 704 L 48 688 L 40 704 M 32 720 L 40 704 L 32 720 M 100 816 L 100 832 M 100 816 L 100 832 M 4 840 L 8 840 M 4 840 L 4 848 M 8 840 L 16 840 M 8 840 L 16 840 L 24 840 M 16 840 L 24 840 L 32 840 M 24 840 L 32 840 M 36 840 L 32 840 M 36 840 L 40 840 M 36 840 L 36 848 M 40 840 L 48 840 M 40 840 L 48 840 L 56 840 M 48 840 L 56 840 L 64 840 M 56 840 L 64 840 M 68 840 L 64 840 M 68 840 L 72 840 M 68 840 L 68 848 M 72 840 L 80 840 M 72 840 L 80 840 L 88 840 M 80 840 L 88 840 L 96 840 M 88 840 L 96 840 M 100 840 L 100 832 M 100 840 L 96 840 M 100 840 L 104 840 M 100 840 L 100 848 M 104 840 L 112 840 M 104 840 L 112 840 L 120 840 M 112 840 L 120 840 L 128 840 M 120 840 L 128 840 M 132 840 L 128 840 M 132 840 L 136 840 M 132 840 L 132 848 M 136 840 L 144 840 M 136 840 L 144 840 L 152 840 M 144 840 L 152 840 L 160 840 M 152 840 L 160 840 M 164 840 L 160 840 M 164 840 L 164 848 M 4 848 L 4 864 M 4 848 L 4 864 M 36 848 L 36 864 M 36 848 L 36 864 M 68 848 L 68 864 M 68 848 L 68 864 M 100 848 L 100 864 M 100 848 L 100 864 M 132 848 L 132 864 M 132 848 L 132 864 M 164 848 L 164 864 M 164 848 L 164 864 M 4 872 L 4 864 M 4 872 L 8 872 L 16 872 M 8 872 L 16 872 L 24 872 M 16 872 L 24 872 L 32 872 M 24 872 L 32 872 M 36 872 L 36 864 M 36 872 L 32 872 M 36 872 L 40 872 L 48 872 M 40 872 L 48 872 L 56 872 M 48 872 L 56 872 L 64 872 M 56 872 L 64 872 M 68 872 L 68 864 M 68 872 L 64 872 M 68 872 L 72 872 L 80 872 M 72 872 L 80 872 L 88 872 M 80 872 L 88 872 L 96 872 M 88 872 L 96 872 M 100 872 L 100 864 M 100 872 L 96 872 M 100 872 L 104 872 M 100 872 L 100 880 M 104 872 L 112 872 M 104 872 L 112 872 L 120 872 M 112 872 L 120 872 L 128 872 M 120 872 L 128 872 M 132 872 L 132 864 M 132 872 L 128 872 M 132 872 L 136 872 L 144 872 M 136 872 L 144 872 L 152 872 M 144 872 L 152 872 L 160 872 M 152 872 L 160 872 M 164 872 L 164 864 M 164 872 L 160 872 M 100 880 L 100 896 M 100 880 L 100 896 M 64 976 L 72 960 L 64 976 M 88 976 L 80 960 L 88 976 M 56 992 L 64 976 L 56 992 M 96 992 L 88 976 L 96 992 M 4 1072 L 4 1088 M 4 1072 L 4 1088 M 4 1096 L 4 1088 M 4 1096 L 8 1096 M 4 1096 L 4 1104 M 8 1096 L 16 1096 M 8 1096 L 16 1096 L 24 1096 M 16 1096 L 24 1096 L 32 1096 M 24 1096 L 32 1096 M 36 1096 L 32 1096 M 36 1096 L 40 1096 M 36 1096 L 36 1104 M 40 1096 L 48 1096 M 40 1096 L 48 1096 L 56 1096 M 48 1096 L 56 1096 L 64 1096 M 56 1096 L 64 1096 M 68 1096 L 64 1096 M 68 1096 L 72 1096 M 68 1096 L 68 1104 M 72 1096 L 80 1096 M 72 1096 L 80 1096 L 88 1096 M 80 1096 L 88 1096 L 96 1096 M 88 1096 L 96 1096 M 100 1096 L 96 1096 M 100 1096 L 104 1096 M 100 1096 L 100 1104 M 104 1096 L 112 1096 M 104 1096 L 112 1096 L 120 1096 M 112 1096 L 120 1096 L 128 1096 M 120 1096 L 128 1096 M 132 1096 L 128 1096 M 132 1096 L 136 1096 M 132 1096 L 132 1104 M 136 1096 L 144 1096 M 136 1096 L 144 1096 L 152 1096 M 144 1096 L 152 1096 L 160 1096 M 152 1096 L 160 1096 M 164 1096 L 160 1096 M 164 1096 L 164 1104 M 4 1104 L 4 1120 M 4 1104 L 4 1120 M 36 1104 L 36 1120 M 36 1104 L 36 1120 M 68 1104 L 68 1120 M 68 1104 L 68 1120 M 100 1104 L 100 1120 M 100 1104 L 100 1120 M 132 1104 L 132 1120 M 132 1104 L 132 1120 M 164 1104 L 164 1120 M 164 1104 L 164 1120 M 4 1128 L 4 1120 M 4 1128 L 8 1128 M 4 1128 L 4 1136 M 8 1128 L 16 1128 M 8 1128 L 16 1128 L 24 1128 M 16 1128 L 24 1128 L 32 1128 M 24 1128 L 32 1128 M 36 1128 L 36 1120 M 36 1128 L 32 1128 M 36 1128 L 40 1128 L 48 1128 M 40 1128 L 48 1128 L 56 1128 M 48 1128 L 56 1128 L 64 1128 M 56 1128 L 64 1128 M 68 1128 L 68 1120 M 68 1128 L 64 1128 M 68 1128 L 72 1128 L 80 1128 M 72 1128 L 80 1128 L 88 1128 M 80 1128 L 88 1128 L 96 1128 M 88 1128 L 96 1128 M 100 1128 L 100 1120 M 100 1128 L 96 1128 M 100 1128 L 104 1128 L 112 1128 M 104 1128 L 112 1128 L 120 1128 M 112 1128 L 120 1128 L 128 1128 M 120 1128 L 128 1128 M 132 1128 L 132 1120 M 132 1128 L 128 1128 M 132 1128 L 136 1128 L 144 1128 M 136 1128 L 144 1128 L 152 1128 M 144 1128 L 152 1128 L 160 1128 M 152 1128 L 160 1128 M 164 1128 L 164 1120 M 164 1128 L 160 1128 M 4 1136 L 4 1152 M 4 1136 L 4 1152" fill="none"/>
<path d="" fill="none" stroke-dasharray="3 3"/>
<text x="1" y="12">
1.
</text>
<text x="17" y="60">
5
</text>
<text x="49" y="60">
2
</text>
<text x="81" y="60">
9
</text>
<text x="113" y="60">
4
</text>
<text x="145" y="60">
7
</text>
<text x="1" y="108">
2.
</text>
<text x="17" y="172">
9
</text>
<text x="49" y="172">
5
</text>
<text x="81" y="172">
7
</text>
<text x="113" y="172">
4
</text>
<text x="145" y="172">
2
</text>
<text x="73" y="236">
9
</text>
<text x="49" y="316">
5
</text>
<text x="97" y="316">
7
</text>
<text x="25" y="396">
4
</text>
<text x="73" y="396">
2
</text>
<text x="1" y="444">
3.
</text>
<text x="17" y="508">
7
</text>
<text x="49" y="508">
5
</text>
<text x="81" y="508">
4
</text>
<text x="113" y="508">
2
</text>
<text x="145" y="508">
9
</text>
<text x="73" y="588">
7
</text>
<text x="49" y="668">
5
</text>
<text x="97" y="668">
4
</text>
<text x="25" y="748">
2
</text>
<text x="1" y="796">
4.
</text>
<text x="17" y="860">
5
</text>
<text x="49" y="860">
4
</text>
<text x="81" y="860">
2
</text>
<text x="113" y="860">
7
</text>
<text x="145" y="860">
9
</text>
<text x="73" y="940">
5
</text>
<text x="49" y="1020">
2
</text>
<text x="97" y="1020">
4
</text>
<text x="1" y="1068">
n.
</text>
<text x="17" y="1116">
2
</text>
<text x="49" y="1116">
4
</text>
<text x="81" y="1116">
5
</text>
<text x="113" y="1116">
7
</text>
<text x="145" y="1116">
9
</text>
<circle class="open" cx="76" cy="232" r="16"/>
<circle class="open" cx="52" cy="312" r="16"/>
<circle class="open" cx="100" cy="312" r="16"/>
<circle class="open" cx="28" cy="392" r="16"/>
<circle class="open" cx="76" cy="392" r="16"/>
<circle class="open" cx="76" cy="584" r="16"/>
<circle class="open" cx="52" cy="664" r="16"/>
<circle class="open" cx="100" cy="664" r="16"/>
<circle class="open" cx="28" cy="744" r="16"/>
<circle class="open" cx="76" cy="936" r="16"/>
<circle class="open" cx="52" cy="1016" r="16"/>
<circle class="open" cx="100" cy="1016" r="16"/>
</svg>
