<svg class="bob" font-family="arial" font-size="14" height="640" width="168" xmlns="http://www.w3.org/2000/svg">
<defs>
<marker id="triangle" markerHeight="10" markerUnits="strokeWidth" markerWidth="10" orient="auto" refX="15" refY="10" viewBox="0 0 50 20">
<path d="M 0 0 L 30 10 L 0 20 z"/>
</marker>
</defs>
<style>

    line, path {
      stroke: black;
      stroke-width: 2;
      stroke-opacity: 1;
      fill-opacity: 1;
      stroke-linecap: round;
      stroke-linejoin: miter;
    }
    circle {
      stroke: black;
      stroke-width: 2;
      stroke-opacity: 1;
      fill-opacity: 1;
      stroke-linecap: round;
      stroke-linejoin: miter;
    }
    circle.solid {
      fill:black;
    }
    circle.open {
      fill:transparent;
    }
    tspan.head{
        fill: none;
        stroke: none;
    }
    
</style>
<path d=" M 4 40 L 8 40 M 4 40 L 4 48 M 8 40 L 16 40 M 8 40 L 16 40 L 24 40 M 16 40 L 24 40 L 32 40 M 24 40 L 32 40 M 36 40 L 32 40 M 36 40 L 40 40 M 36 40 L 36 48 M 40 40 L 48 40 M 40 40 L 48 40 L 56 40 M 48 40 L 56 40 L 64 40 M 56 40 L 64 40 M 68 40 L 64 40 M 68 40 L 72 40 M 68 40 L 68 48 M 72 40 L 80 40 M 72 40 L 80 40 L 88 40 M 80 40 L 88 40 L 96 40 M 88 40 L 96 40 M 100 40 L 96 40 M 100 40 L 104 40 M 100 40 L 100 48 M 104 40 L 112 40 M 104 40 L 112 40 L 120 40 M 112 40 L 120 40 L 128 40 M 120 40 L 128 40 M 132 40 L 128 40 M 132 40 L 136 40 M 132 40 L 132 48 M 136 40 L 144 40 M 136 40 L 144 40 L 152 40 M 144 40 L 152 40 L 160 40 M 152 40 L 160 40 M 164 40 L 160 40 M 164 40 L 164 48 M 4 48 L 4 64 M 4 48 L 4 64 M 36 48 L 36 64 M 36 48 L 36 64 M 68 48 L 68 64 M 68 48 L 68 64 M 100 48 L 100 64 M 100 48 L 100 64 M 132 48 L 132 64 M 132 48 L 132 64 M 164 48 L 164 64 M 164 48 L 164 64 M 4 72 L 4 64 M 4 72 L 8 72 L 16 72 M 8 72 L 16 72 L 24 72 M 16 72 L 24 72 L 32 72 M 24 72 L 32 72 M 36 72 L 36 64 M 36 72 L 32 72 M 36 72 L 40 72 L 48 72 M 40 72 L 48 72 L 56 72 M 48 72 L 56 72 L 64 72 M 56 72 L 64 72 M 68 72 L 68 64 M 68 72 L 64 72 M 68 72 L 72 72 L 80 72 M 72 72 L 80 72 L 88 72 M 80 72 L 88 72 L 96 72 M 88 72 L 96 72 M 100 72 L 100 64 M 100 72 L 96 72 M 100 72 L 104 72 L 112 72 M 104 72 L 112 72 L 120 72 M 112 72 L 120 72 L 128 72 M 120 72 L 128 72 M 132 72 L 132 64 M 132 72 L 128 72 M 132 72 L 136 72 L 144 72 M 136 72 L 144 72 L 152 72 M 144 72 L 152 72 L 160 72 M 152 72 L 160 72 M 164 72 L 164 64 M 164 72 L 160 72 M 36 112 L 36 128 M 36 112 L 36 128 M 4 136 L 8 136 M 4 136 L 4 144 M 8 136 L 16 136 M 8 136 L 16 136 L 24 136 M 16 136 L 24 136 L 32 136 M 24 136 L 32 136 M 36 136 L 36 128 M 36 136 L 32 136 M 36 136 L 40 136 M 36 136 L 36 144 M 40 136 L 48 136 M 40 136 L 48 136 L 56 136 M 48 136 L 56 136 L 64 136 M 56 136 L 64 136 M 68 136 L 64 136 M 68 136 L 72 136 M 68 136 L 68 144 M 72 136 L 80 136 M 72 136 L 80 136 L 88 136 M 80 136 L 88 136 L 96 136 M 88 136 L 96 136 M 100 136 L 96 136 M 100 136 L 104 136 M 100 136 L 100 144 M 104 136 L 112 136 M 104 136 L 112 136 L 120 136 M 112 136 L 120 136 L 128 136 M 120 136 L 128 136 M 132 136 L 128 136 M 132 136 L 136 136 M 132 136 L 132 144 M 136 136 L 144 136 M 136 136 L 144 136 L 152 136 M 144 136 L 152 136 L 160 136 M 152 136 L 160 136 M 164 136 L 160 136 M 164 136 L 164 144 M 4 144 L 4 160 M 4 144 L 4 160 M 36 144 L 36 160 M 36 144 L 36 160 M 68 144 L 68 160 M 68 144 L 68 160 M 100 144 L 100 160 M 100 144 L 100 160 M 132 144 L 132 160 M 132 144 L 132 160 M 164 144 L 164 160 M 164 144 L 164 160 M 4 168 L 4 160 M 4 168 L 8 168 L 16 168 M 8 168 L 16 168 L 24 168 M 16 168 L 24 168 L 32 168 M 24 168 L 32 168 M 36 168 L 36 160 M 36 168 L 32 168 M 36 168 L 40 168 M 36 168 L 36 176 M 40 168 L 48 168 M 40 168 L 48 168 L 56 168 M 48 168 L 56 168 L 64 168 M 56 168 L 64 168 M 68 168 L 68 160 M 68 168 L 64 168 M 68 168 L 72 168 L 80 168 M 72 168 L 80 168 L 88 168 M 80 168 L 88 168 L 96 168 M 88 168 L 96 168 M 100 168 L 100 160 M 100 168 L 96 168 M 100 168 L 104 168 L 112 168 M 104 168 L 112 168 L 120 168 M 112 168 L 120 168 L 128 168 M 120 168 L 128 168 M 132 168 L 132 160 M 132 168 L 128 168 M 132 168 L 136 168 L 144 168 M 136 168 L 144 168 L 152 168 M 144 168 L 152 168 L 160 168 M 152 168 L 160 168 M 164 168 L 164 160 M 164 168 L 160 168 M 36 176 L 36 192 M 36 176 L 36 192 M 68 224 L 68 240 M 68 224 L 68 240 M 4 248 L 8 248 M 4 248 L 4 256 M 8 248 L 16 248 M 8 248 L 16 248 L 24 248 M 16 248 L 24 248 L 32 248 M 24 248 L 32 248 M 36 248 L 32 248 M 36 248 L 40 248 M 36 248 L 36 256 M 40 248 L 48 248 M 40 248 L 48 248 L 56 248 M 48 248 L 56 248 L 64 248 M 56 248 L 64 248 M 68 248 L 68 240 M 68 248 L 64 248 M 68 248 L 72 248 M 68 248 L 68 256 M 72 248 L 80 248 M 72 248 L 80 248 L 88 248 M 80 248 L 88 248 L 96 248 M 88 248 L 96 248 M 100 248 L 96 248 M 100 248 L 104 248 M 100 248 L 100 256 M 104 248 L 112 248 M 104 248 L 112 248 L 120 248 M 112 248 L 120 248 L 128 248 M 120 248 L 128 248 M 132 248 L 128 248 M 132 248 L 136 248 M 132 248 L 132 256 M 136 248 L 144 248 M 136 248 L 144 248 L 152 248 M 144 248 L 152 248 L 160 248 M 152 248 L 160 248 M 164 248 L 160 248 M 164 248 L 164 256 M 4 256 L 4 272 M 4 256 L 4 272 M 36 256 L 36 272 M 36 256 L 36 272 M 68 256 L 68 272 M 68 256 L 68 272 M 100 256 L 100 272 M 100 256 L 100 272 M 132 256 L 132 272 M 132 256 L 132 272 M 164 256 L 164 272 M 164 256 L 164 272 M 4 280 L 4 272 M 4 280 L 8 280 L 16 280 M 8 280 L 16 280 L 24 280 M 16 280 L 24 280 L 32 280 M 24 280 L 32 280 M 36 280 L 36 272 M 36 280 L 32 280 M 36 280 L 40 280 L 48 280 M 40 280 L 48 280 L 56 280 M 48 280 L 56 280 L 64 280 M 56 280 L 64 280 M 68 280 L 68 272 M 68 280 L 64 280 M 68 280 L 72 280 M 68 280 L 68 288 M 72 280 L 80 280 M 72 280 L 80 280 L 88 280 M 80 280 L 88 280 L 96 280 M 88 280 L 96 280 M 100 280 L 100 272 M 100 280 L 96 280 M 100 280 L 104 280 L 112 280 M 104 280 L 112 280 L 120 280 M 112 280 L 120 280 L 128 280 M 120 280 L 128 280 M 132 280 L 132 272 M 132 280 L 128 280 M 132 280 L 136 280 L 144 280 M 136 280 L 144 280 L 152 280 M 144 280 L 152 280 L 160 280 M 152 280 L 160 280 M 164 280 L 164 272 M 164 280 L 160 280 M 68 288 L 68 304 M 68 288 L 68 304 M 100 336 L 100 352 M 100 336 L 100 352 M 4 360 L 8 360 M 4 360 L 4 368 M 8 360 L 16 360 M 8 360 L 16 360 L 24 360 M 16 360 L 24 360 L 32 360 M 24 360 L 32 360 M 36 360 L 32 360 M 36 360 L 40 360 M 36 360 L 36 368 M 40 360 L 48 360 M 40 360 L 48 360 L 56 360 M 48 360 L 56 360 L 64 360 M 56 360 L 64 360 M 68 360 L 64 360 M 68 360 L 72 360 M 68 360 L 68 368 M 72 360 L 80 360 M 72 360 L 80 360 L 88 360 M 80 360 L 88 360 L 96 360 M 88 360 L 96 360 M 100 360 L 100 352 M 100 360 L 96 360 M 100 360 L 104 360 M 100 360 L 100 368 M 104 360 L 112 360 M 104 360 L 112 360 L 120 360 M 112 360 L 120 360 L 128 360 M 120 360 L 128 360 M 132 360 L 128 360 M 132 360 L 136 360 M 132 360 L 132 368 M 136 360 L 144 360 M 136 360 L 144 360 L 152 360 M 144 360 L 152 360 L 160 360 M 152 360 L 160 360 M 164 360 L 160 360 M 164 360 L 164 368 M 4 368 L 4 384 M 4 368 L 4 384 M 36 368 L 36 384 M 36 368 L 36 384 M 68 368 L 68 384 M 68 368 L 68 384 M 100 368 L 100 384 M 100 368 L 100 384 M 132 368 L 132 384 M 132 368 L 132 384 M 164 368 L 164 384 M 164 368 L 164 384 M 4 392 L 4 384 M 4 392 L 8 392 L 16 392 M 8 392 L 16 392 L 24 392 M 16 392 L 24 392 L 32 392 M 24 392 L 32 392 M 36 392 L 36 384 M 36 392 L 32 392 M 36 392 L 40 392 L 48 392 M 40 392 L 48 392 L 56 392 M 48 392 L 56 392 L 64 392 M 56 392 L 64 392 M 68 392 L 68 384 M 68 392 L 64 392 M 68 392 L 72 392 L 80 392 M 72 392 L 80 392 L 88 392 M 80 392 L 88 392 L 96 392 M 88 392 L 96 392 M 100 392 L 100 384 M 100 392 L 96 392 M 100 392 L 104 392 M 100 392 L 100 400 M 104 392 L 112 392 M 104 392 L 112 392 L 120 392 M 112 392 L 120 392 L 128 392 M 120 392 L 128 392 M 132 392 L 132 384 M 132 392 L 128 392 M 132 392 L 136 392 L 144 392 M 136 392 L 144 392 L 152 392 M 144 392 L 152 392 L 160 392 M 152 392 L 160 392 M 164 392 L 164 384 M 164 392 L 160 392 M 100 400 L 100 416 M 100 400 L 100 416 M 132 448 L 132 464 M 132 448 L 132 464 M 4 472 L 8 472 M 4 472 L 4 480 M 8 472 L 16 472 M 8 472 L 16 472 L 24 472 M 16 472 L 24 472 L 32 472 M 24 472 L 32 472 M 36 472 L 32 472 M 36 472 L 40 472 M 36 472 L 36 480 M 40 472 L 48 472 M 40 472 L 48 472 L 56 472 M 48 472 L 56 472 L 64 472 M 56 472 L 64 472 M 68 472 L 64 472 M 68 472 L 72 472 M 68 472 L 68 480 M 72 472 L 80 472 M 72 472 L 80 472 L 88 472 M 80 472 L 88 472 L 96 472 M 88 472 L 96 472 M 100 472 L 96 472 M 100 472 L 104 472 M 100 472 L 100 480 M 104 472 L 112 472 M 104 472 L 112 472 L 120 472 M 112 472 L 120 472 L 128 472 M 120 472 L 128 472 M 132 472 L 132 464 M 132 472 L 128 472 M 132 472 L 136 472 M 132 472 L 132 480 M 136 472 L 144 472 M 136 472 L 144 472 L 152 472 M 144 472 L 152 472 L 160 472 M 152 472 L 160 472 M 164 472 L 160 472 M 164 472 L 164 480 M 4 480 L 4 496 M 4 480 L 4 496 M 36 480 L 36 496 M 36 480 L 36 496 M 68 480 L 68 496 M 68 480 L 68 496 M 100 480 L 100 496 M 100 480 L 100 496 M 132 480 L 132 496 M 132 480 L 132 496 M 164 480 L 164 496 M 164 480 L 164 496 M 4 504 L 4 496 M 4 504 L 8 504 L 16 504 M 8 504 L 16 504 L 24 504 M 16 504 L 24 504 L 32 504 M 24 504 L 32 504 M 36 504 L 36 496 M 36 504 L 32 504 M 36 504 L 40 504 L 48 504 M 40 504 L 48 504 L 56 504 M 48 504 L 56 504 L 64 504 M 56 504 L 64 504 M 68 504 L 68 496 M 68 504 L 64 504 M 68 504 L 72 504 L 80 504 M 72 504 L 80 504 L 88 504 M 80 504 L 88 504 L 96 504 M 88 504 L 96 504 M 100 504 L 100 496 M 100 504 L 96 504 M 100 504 L 104 504 L 112 504 M 104 504 L 112 504 L 120 504 M 112 504 L 120 504 L 128 504 M 120 504 L 128 504 M 132 504 L 132 496 M 132 504 L 128 504 M 132 504 L 136 504 M 132 504 L 132 512 M 136 504 L 144 504 M 136 504 L 144 504 L 152 504 M 144 504 L 152 504 L 160 504 M 152 504 L 160 504 M 164 504 L 164 496 M 164 504 L 160 504 M 132 512 L 132 528 M 132 512 L 132 528 M 164 560 L 164 576 M 164 560 L 164 576 M 4 584 L 8 584 M 4 584 L 4 592 M 8 584 L 16 584 M 8 584 L 16 584 L 24 584 M 16 584 L 24 584 L 32 584 M 24 584 L 32 584 M 36 584 L 32 584 M 36 584 L 40 584 M 36 584 L 36 592 M 40 584 L 48 584 M 40 584 L 48 584 L 56 584 M 48 584 L 56 584 L 64 584 M 56 584 L 64 584 M 68 584 L 64 584 M 68 584 L 72 584 M 68 584 L 68 592 M 72 584 L 80 584 M 72 584 L 80 584 L 88 584 M 80 584 L 88 584 L 96 584 M 88 584 L 96 584 M 100 584 L 96 584 M 100 584 L 104 584 M 100 584 L 100 592 M 104 584 L 112 584 M 104 584 L 112 584 L 120 584 M 112 584 L 120 584 L 128 584 M 120 584 L 128 584 M 132 584 L 128 584 M 132 584 L 136 584 M 132 584 L 132 592 M 136 584 L 144 584 M 136 584 L 144 584 L 152 584 M 144 584 L 152 584 L 160 584 M 152 584 L 160 584 M 164 584 L 164 576 M 164 584 L 160 584 M 164 584 L 164 592 M 4 592 L 4 608 M 4 592 L 4 608 M 36 592 L 36 608 M 36 592 L 36 608 M 68 592 L 68 608 M 68 592 L 68 608 M 100 592 L 100 608 M 100 592 L 100 608 M 132 592 L 132 608 M 132 592 L 132 608 M 164 592 L 164 608 M 164 592 L 164 608 M 4 616 L 4 608 M 4 616 L 8 616 L 16 616 M 8 616 L 16 616 L 24 616 M 16 616 L 24 616 L 32 616 M 24 616 L 32 616 M 36 616 L 36 608 M 36 616 L 32 616 M 36 616 L 40 616 L 48 616 M 40 616 L 48 616 L 56 616 M 48 616 L 56 616 L 64 616 M 56 616 L 64 616 M 68 616 L 68 608 M 68 616 L 64 616 M 68 616 L 72 616 L 80 616 M 72 616 L 80 616 L 88 616 M 80 616 L 88 616 L 96 616 M 88 616 L 96 616 M 100 616 L 100 608 M 100 616 L 96 616 M 100 616 L 104 616 L 112 616 M 104 616 L 112 616 L 120 616 M 112 616 L 120 616 L 128 616 M 120 616 L 128 616 M 132 616 L 132 608 M 132 616 L 128 616 M 132 616 L 136 616 L 144 616 M 136 616 L 144 616 L 152 616 M 144 616 L 152 616 L 160 616 M 152 616 L 160 616 M 164 616 L 164 608 M 164 616 L 160 616 M 164 616 L 164 624 L 164 640 M 164 624 L 164 640" fill="none"/>
<path d="" fill="none" stroke-dasharray="3 3"/>
<text x="1" y="12">
1.
</text>
<text x="17" y="60">
5
</text>
<text x="49" y="60">
2
</text>
<text x="81" y="60">
9
</text>
<text x="113" y="60">
4
</text>
<text x="145" y="60">
7
</text>
<text x="1" y="108">
2.
</text>
<text x="17" y="156">
5
</text>
<text x="49" y="156">
2
</text>
<text x="81" y="156">
9
</text>
<text x="113" y="156">
4
</text>
<text x="145" y="156">
7
</text>
<text x="1" y="220">
3.
</text>
<text x="17" y="268">
2
</text>
<text x="49" y="268">
5
</text>
<text x="81" y="268">
9
</text>
<text x="113" y="268">
4
</text>
<text x="145" y="268">
7
</text>
<text x="1" y="332">
4.
</text>
<text x="17" y="380">
2
</text>
<text x="49" y="380">
5
</text>
<text x="81" y="380">
9
</text>
<text x="113" y="380">
4
</text>
<text x="145" y="380">
7
</text>
<text x="1" y="444">
5.
</text>
<text x="17" y="492">
2
</text>
<text x="49" y="492">
4
</text>
<text x="81" y="492">
5
</text>
<text x="113" y="492">
9
</text>
<text x="145" y="492">
7
</text>
<text x="1" y="556">
6.
</text>
<text x="17" y="604">
2
</text>
<text x="49" y="604">
4
</text>
<text x="81" y="604">
5
</text>
<text x="113" y="604">
7
</text>
<text x="145" y="604">
9
</text>
</svg>
