<svg class="bob" font-family="arial" font-size="14" height="400" width="240" xmlns="http://www.w3.org/2000/svg">
<defs>
<marker id="triangle" markerHeight="10" markerUnits="strokeWidth" markerWidth="10" orient="auto" refX="15" refY="10" viewBox="0 0 50 20">
<path d="M 0 0 L 30 10 L 0 20 z"/>
</marker>
</defs>
<style>

    line, path {
      stroke: black;
      stroke-width: 2;
      stroke-opacity: 1;
      fill-opacity: 1;
      stroke-linecap: round;
      stroke-linejoin: miter;
    }
    circle {
      stroke: black;
      stroke-width: 2;
      stroke-opacity: 1;
      fill-opacity: 1;
      stroke-linecap: round;
      stroke-linejoin: miter;
    }
    circle.solid {
      fill:black;
    }
    circle.open {
      fill:transparent;
    }
    tspan.head{
        fill: none;
        stroke: none;
    }
    
</style>
<path d=" M 4 24 L 8 24 M 4 24 L 4 32 M 8 24 L 16 24 M 8 24 L 16 24 L 24 24 M 16 24 L 24 24 L 32 24 M 24 24 L 32 24 M 36 24 L 32 24 M 36 24 L 40 24 M 36 24 L 36 32 M 40 24 L 48 24 M 40 24 L 48 24 L 56 24 M 48 24 L 56 24 L 64 24 M 56 24 L 64 24 M 68 24 L 64 24 M 68 24 L 72 24 M 68 24 L 68 32 M 72 24 L 80 24 M 72 24 L 80 24 L 88 24 M 80 24 L 88 24 L 96 24 M 88 24 L 96 24 M 100 24 L 96 24 M 100 24 L 104 24 M 100 24 L 100 32 M 104 24 L 112 24 M 104 24 L 112 24 L 120 24 M 112 24 L 120 24 L 128 24 M 120 24 L 128 24 M 132 24 L 128 24 M 132 24 L 132 32 M 4 32 L 4 48 M 4 32 L 4 48 M 36 32 L 36 48 M 36 32 L 36 48 M 68 32 L 68 48 M 68 32 L 68 48 M 100 32 L 100 48 M 100 32 L 100 48 M 132 32 L 132 48 M 132 32 L 132 48 M 4 56 L 4 48 M 4 56 L 8 56 L 16 56 M 8 56 L 16 56 L 24 56 M 16 56 L 24 56 L 32 56 M 24 56 L 32 56 M 36 56 L 36 48 M 36 56 L 32 56 M 36 56 L 40 56 L 48 56 M 40 56 L 48 56 L 56 56 M 48 56 L 56 56 L 64 56 M 56 56 L 64 56 M 68 56 L 68 48 M 68 56 L 64 56 M 68 56 L 72 56 L 80 56 M 72 56 L 80 56 L 88 56 M 80 56 L 88 56 L 96 56 M 88 56 L 96 56 M 100 56 L 100 48 M 100 56 L 96 56 M 100 56 L 104 56 L 112 56 M 104 56 L 112 56 L 120 56 M 112 56 L 120 56 L 128 56 M 120 56 L 128 56 M 132 56 L 132 48 M 132 56 L 128 56 M 4 104 L 8 104 M 4 104 L 4 112 M 8 104 L 16 104 M 8 104 L 16 104 L 24 104 M 16 104 L 24 104 L 32 104 M 24 104 L 32 104 M 36 104 L 32 104 M 36 104 L 40 104 M 36 104 L 36 112 M 40 104 L 48 104 M 40 104 L 48 104 L 56 104 M 48 104 L 56 104 L 64 104 M 56 104 L 64 104 M 68 104 L 64 104 M 68 104 L 68 112 M 108 104 L 112 104 M 108 104 L 108 112 M 112 104 L 120 104 M 112 104 L 120 104 L 128 104 M 120 104 L 128 104 L 136 104 M 128 104 L 136 104 M 140 104 L 136 104 M 140 104 L 144 104 M 140 104 L 140 112 M 144 104 L 152 104 M 144 104 L 152 104 L 160 104 M 152 104 L 160 104 L 168 104 M 160 104 L 168 104 M 172 104 L 168 104 M 172 104 L 172 112 M 4 112 L 4 128 M 4 112 L 4 128 M 36 112 L 36 128 M 36 112 L 36 128 M 68 112 L 68 128 M 68 112 L 68 128 M 108 112 L 108 128 M 108 112 L 108 128 M 140 112 L 140 128 M 140 112 L 140 128 M 172 112 L 172 128 M 172 112 L 172 128 M 4 136 L 4 128 M 4 136 L 8 136 L 16 136 M 8 136 L 16 136 L 24 136 M 16 136 L 24 136 L 32 136 M 24 136 L 32 136 M 36 136 L 36 128 M 36 136 L 32 136 M 36 136 L 40 136 L 48 136 M 40 136 L 48 136 L 56 136 M 48 136 L 56 136 L 64 136 M 56 136 L 64 136 M 68 136 L 68 128 M 68 136 L 64 136 M 108 136 L 108 128 M 108 136 L 112 136 L 120 136 M 112 136 L 120 136 L 128 136 M 120 136 L 128 136 L 136 136 M 128 136 L 136 136 M 140 136 L 140 128 M 140 136 L 136 136 M 140 136 L 144 136 L 152 136 M 144 136 L 152 136 L 160 136 M 152 136 L 160 136 L 168 136 M 160 136 L 168 136 M 172 136 L 172 128 M 172 136 L 168 136 M 4 184 L 8 184 M 4 184 L 4 192 M 8 184 L 16 184 M 8 184 L 16 184 L 24 184 M 16 184 L 24 184 L 32 184 M 24 184 L 32 184 M 36 184 L 32 184 M 36 184 L 36 192 M 68 184 L 72 184 M 68 184 L 68 192 M 72 184 L 80 184 M 72 184 L 80 184 L 88 184 M 80 184 L 88 184 L 96 184 M 88 184 L 96 184 M 100 184 L 96 184 M 100 184 L 100 192 M 140 184 L 144 184 M 140 184 L 140 192 M 144 184 L 152 184 M 144 184 L 152 184 L 160 184 M 152 184 L 160 184 L 168 184 M 160 184 L 168 184 M 172 184 L 168 184 M 172 184 L 172 192 M 204 184 L 208 184 M 204 184 L 204 192 M 208 184 L 216 184 M 208 184 L 216 184 L 224 184 M 216 184 L 224 184 L 232 184 M 224 184 L 232 184 M 236 184 L 232 184 M 236 184 L 236 192 M 4 192 L 4 208 M 4 192 L 4 208 M 36 192 L 36 208 M 36 192 L 36 208 M 68 192 L 68 208 M 68 192 L 68 208 M 100 192 L 100 208 M 100 192 L 100 208 M 140 192 L 140 208 M 140 192 L 140 208 M 172 192 L 172 208 M 172 192 L 172 208 M 204 192 L 204 208 M 204 192 L 204 208 M 236 192 L 236 208 M 236 192 L 236 208 M 4 216 L 4 208 M 4 216 L 8 216 L 16 216 M 8 216 L 16 216 L 24 216 M 16 216 L 24 216 L 32 216 M 24 216 L 32 216 M 36 216 L 36 208 M 36 216 L 32 216 M 68 216 L 68 208 M 68 216 L 72 216 L 80 216 M 72 216 L 80 216 L 88 216 M 80 216 L 88 216 L 96 216 M 88 216 L 96 216 M 100 216 L 100 208 M 100 216 L 96 216 M 140 216 L 140 208 M 140 216 L 144 216 L 152 216 M 144 216 L 152 216 L 160 216 M 152 216 L 160 216 L 168 216 M 160 216 L 168 216 M 172 216 L 172 208 M 172 216 L 168 216 M 204 216 L 204 208 M 204 216 L 208 216 L 216 216 M 208 216 L 216 216 L 224 216 M 216 216 L 224 216 L 232 216 M 224 216 L 232 216 M 236 216 L 236 208 M 236 216 L 232 216 M 4 264 L 8 264 M 4 264 L 4 272 M 8 264 L 16 264 M 8 264 L 16 264 L 24 264 M 16 264 L 24 264 L 32 264 M 24 264 L 32 264 M 36 264 L 32 264 M 36 264 L 40 264 M 36 264 L 36 272 M 40 264 L 48 264 M 40 264 L 48 264 L 56 264 M 48 264 L 56 264 L 64 264 M 56 264 L 64 264 M 68 264 L 64 264 M 68 264 L 68 272 M 108 264 L 112 264 M 108 264 L 108 272 M 112 264 L 120 264 M 112 264 L 120 264 L 128 264 M 120 264 L 128 264 L 136 264 M 128 264 L 136 264 M 140 264 L 136 264 M 140 264 L 144 264 M 140 264 L 140 272 M 144 264 L 152 264 M 144 264 L 152 264 L 160 264 M 152 264 L 160 264 L 168 264 M 160 264 L 168 264 M 172 264 L 168 264 M 172 264 L 172 272 M 4 272 L 4 288 M 4 272 L 4 288 M 36 272 L 36 288 M 36 272 L 36 288 M 68 272 L 68 288 M 68 272 L 68 288 M 108 272 L 108 288 M 108 272 L 108 288 M 140 272 L 140 288 M 140 272 L 140 288 M 172 272 L 172 288 M 172 272 L 172 288 M 4 296 L 4 288 M 4 296 L 8 296 L 16 296 M 8 296 L 16 296 L 24 296 M 16 296 L 24 296 L 32 296 M 24 296 L 32 296 M 36 296 L 36 288 M 36 296 L 32 296 M 36 296 L 40 296 L 48 296 M 40 296 L 48 296 L 56 296 M 48 296 L 56 296 L 64 296 M 56 296 L 64 296 M 68 296 L 68 288 M 68 296 L 64 296 M 108 296 L 108 288 M 108 296 L 112 296 L 120 296 M 112 296 L 120 296 L 128 296 M 120 296 L 128 296 L 136 296 M 128 296 L 136 296 M 140 296 L 140 288 M 140 296 L 136 296 M 140 296 L 144 296 L 152 296 M 144 296 L 152 296 L 160 296 M 152 296 L 160 296 L 168 296 M 160 296 L 168 296 M 172 296 L 172 288 M 172 296 L 168 296 M 4 344 L 8 344 M 4 344 L 4 352 M 8 344 L 16 344 M 8 344 L 16 344 L 24 344 M 16 344 L 24 344 L 32 344 M 24 344 L 32 344 M 36 344 L 32 344 M 36 344 L 40 344 M 36 344 L 36 352 M 40 344 L 48 344 M 40 344 L 48 344 L 56 344 M 48 344 L 56 344 L 64 344 M 56 344 L 64 344 M 68 344 L 64 344 M 68 344 L 72 344 M 68 344 L 68 352 M 72 344 L 80 344 M 72 344 L 80 344 L 88 344 M 80 344 L 88 344 L 96 344 M 88 344 L 96 344 M 100 344 L 96 344 M 100 344 L 104 344 M 100 344 L 100 352 M 104 344 L 112 344 M 104 344 L 112 344 L 120 344 M 112 344 L 120 344 L 128 344 M 120 344 L 128 344 M 132 344 L 128 344 M 132 344 L 132 352 M 4 352 L 4 368 M 4 352 L 4 368 M 36 352 L 36 368 M 36 352 L 36 368 M 68 352 L 68 368 M 68 352 L 68 368 M 100 352 L 100 368 M 100 352 L 100 368 M 132 352 L 132 368 M 132 352 L 132 368 M 4 376 L 4 368 M 4 376 L 8 376 L 16 376 M 8 376 L 16 376 L 24 376 M 16 376 L 24 376 L 32 376 M 24 376 L 32 376 M 36 376 L 36 368 M 36 376 L 32 376 M 36 376 L 40 376 L 48 376 M 40 376 L 48 376 L 56 376 M 48 376 L 56 376 L 64 376 M 56 376 L 64 376 M 68 376 L 68 368 M 68 376 L 64 376 M 68 376 L 72 376 L 80 376 M 72 376 L 80 376 L 88 376 M 80 376 L 88 376 L 96 376 M 88 376 L 96 376 M 100 376 L 100 368 M 100 376 L 96 376 M 100 376 L 104 376 L 112 376 M 104 376 L 112 376 L 120 376 M 112 376 L 120 376 L 128 376 M 120 376 L 128 376 M 132 376 L 132 368 M 132 376 L 128 376" fill="none"/>
<path d="" fill="none" stroke-dasharray="3 3"/>
<text x="1" y="12">
1.
</text>
<text x="17" y="44">
5
</text>
<text x="49" y="44">
2
</text>
<text x="81" y="44">
4
</text>
<text x="113" y="44">
7
</text>
<text x="1" y="92">
2.
</text>
<text x="17" y="124">
5
</text>
<text x="49" y="124">
2
</text>
<text x="121" y="124">
4
</text>
<text x="153" y="124">
7
</text>
<text x="1" y="172">
3.
</text>
<text x="17" y="204">
5
</text>
<text x="81" y="204">
2
</text>
<text x="153" y="204">
4
</text>
<text x="217" y="204">
7
</text>
<text x="1" y="252">
4.
</text>
<text x="17" y="284">
2
</text>
<text x="49" y="284">
5
</text>
<text x="121" y="284">
4
</text>
<text x="153" y="284">
7
</text>
<text x="1" y="332">
5.
</text>
<text x="17" y="364">
2
</text>
<text x="49" y="364">
4
</text>
<text x="81" y="364">
5
</text>
<text x="113" y="364">
7
</text>
</svg>
