<svg class="bob" font-family="arial" font-size="14" height="448" width="168" xmlns="http://www.w3.org/2000/svg">
<defs>
<marker id="triangle" markerHeight="10" markerUnits="strokeWidth" markerWidth="10" orient="auto" refX="15" refY="10" viewBox="0 0 50 20">
<path d="M 0 0 L 30 10 L 0 20 z"/>
</marker>
</defs>
<style>

    line, path {
      stroke: black;
      stroke-width: 2;
      stroke-opacity: 1;
      fill-opacity: 1;
      stroke-linecap: round;
      stroke-linejoin: miter;
    }
    circle {
      stroke: black;
      stroke-width: 2;
      stroke-opacity: 1;
      fill-opacity: 1;
      stroke-linecap: round;
      stroke-linejoin: miter;
    }
    circle.solid {
      fill:black;
    }
    circle.open {
      fill:transparent;
    }
    tspan.head{
        fill: none;
        stroke: none;
    }
    
</style>
<path d=" M 4 24 L 8 24 M 4 24 L 4 32 M 8 24 L 16 24 M 8 24 L 16 24 L 24 24 M 16 24 L 24 24 L 32 24 M 24 24 L 32 24 M 36 24 L 32 24 M 36 24 L 40 24 M 36 24 L 36 32 M 40 24 L 48 24 M 40 24 L 48 24 L 56 24 M 48 24 L 56 24 L 64 24 M 56 24 L 64 24 M 68 24 L 64 24 M 68 24 L 72 24 M 68 24 L 68 32 M 72 24 L 80 24 M 72 24 L 80 24 L 88 24 M 80 24 L 88 24 L 96 24 M 88 24 L 96 24 M 100 24 L 96 24 M 100 24 L 104 24 M 100 24 L 100 32 M 104 24 L 112 24 M 104 24 L 112 24 L 120 24 M 112 24 L 120 24 L 128 24 M 120 24 L 128 24 M 132 24 L 128 24 M 132 24 L 136 24 M 132 24 L 132 32 M 136 24 L 144 24 M 136 24 L 144 24 L 152 24 M 144 24 L 152 24 L 160 24 M 152 24 L 160 24 M 164 24 L 160 24 M 164 24 L 164 32 M 4 32 L 4 48 M 4 32 L 4 48 M 36 32 L 36 48 M 36 32 L 36 48 M 68 32 L 68 48 M 68 32 L 68 48 M 100 32 L 100 48 M 100 32 L 100 48 M 132 32 L 132 48 M 132 32 L 132 48 M 164 32 L 164 48 M 164 32 L 164 48 M 4 56 L 4 48 M 4 56 L 8 56 L 16 56 M 8 56 L 16 56 L 24 56 M 16 56 L 24 56 L 32 56 M 24 56 L 32 56 M 36 56 L 36 48 M 36 56 L 32 56 M 36 56 L 40 56 L 48 56 M 40 56 L 48 56 L 56 56 M 48 56 L 56 56 L 64 56 M 56 56 L 64 56 M 68 56 L 68 48 M 68 56 L 64 56 M 68 56 L 72 56 L 80 56 M 72 56 L 80 56 L 88 56 M 80 56 L 88 56 L 96 56 M 88 56 L 96 56 M 100 56 L 100 48 M 100 56 L 96 56 M 100 56 L 104 56 L 112 56 M 104 56 L 112 56 L 120 56 M 112 56 L 120 56 L 128 56 M 120 56 L 128 56 M 132 56 L 132 48 M 132 56 L 128 56 M 132 56 L 136 56 L 144 56 M 136 56 L 144 56 L 152 56 M 144 56 L 152 56 L 160 56 M 152 56 L 160 56 M 164 56 L 164 48 M 164 56 L 160 56 M 4 104 L 8 104 M 4 104 L 4 112 M 8 104 L 16 104 M 8 104 L 16 104 L 24 104 M 16 104 L 24 104 L 32 104 M 24 104 L 32 104 M 36 104 L 32 104 M 36 104 L 40 104 M 36 104 L 36 112 M 40 104 L 48 104 M 40 104 L 48 104 L 56 104 M 48 104 L 56 104 L 64 104 M 56 104 L 64 104 M 68 104 L 64 104 M 68 104 L 72 104 M 68 104 L 68 112 M 72 104 L 80 104 M 72 104 L 80 104 L 88 104 M 80 104 L 88 104 L 96 104 M 88 104 L 96 104 M 100 104 L 96 104 M 100 104 L 104 104 M 100 104 L 100 112 M 104 104 L 112 104 M 104 104 L 112 104 L 120 104 M 112 104 L 120 104 L 128 104 M 120 104 L 128 104 M 132 104 L 128 104 M 132 104 L 136 104 M 132 104 L 132 112 M 136 104 L 144 104 M 136 104 L 144 104 L 152 104 M 144 104 L 152 104 L 160 104 M 152 104 L 160 104 M 164 104 L 160 104 M 164 104 L 164 112 M 4 112 L 4 128 M 4 112 L 4 128 M 36 112 L 36 128 M 36 112 L 36 128 M 68 112 L 68 128 M 68 112 L 68 128 M 100 112 L 100 128 M 100 112 L 100 128 M 132 112 L 132 128 M 132 112 L 132 128 M 164 112 L 164 128 M 164 112 L 164 128 M 4 136 L 4 128 M 4 136 L 8 136 L 16 136 M 8 136 L 16 136 L 24 136 M 16 136 L 24 136 L 32 136 M 24 136 L 32 136 M 36 136 L 36 128 M 36 136 L 32 136 M 36 136 L 40 136 L 48 136 M 40 136 L 48 136 L 56 136 M 48 136 L 56 136 L 64 136 M 56 136 L 64 136 M 68 136 L 68 128 M 68 136 L 64 136 M 68 136 L 72 136 L 80 136 M 72 136 L 80 136 L 88 136 M 80 136 L 88 136 L 96 136 M 88 136 L 96 136 M 100 136 L 100 128 M 100 136 L 96 136 M 100 136 L 104 136 L 112 136 M 104 136 L 112 136 L 120 136 M 112 136 L 120 136 L 128 136 M 120 136 L 128 136 M 132 136 L 132 128 M 132 136 L 128 136 M 132 136 L 136 136 L 144 136 M 136 136 L 144 136 L 152 136 M 144 136 L 152 136 L 160 136 M 152 136 L 160 136 M 164 136 L 164 128 M 164 136 L 160 136 M 20 160 L 20 176 M 20 160 L 20 176 M 4 232 L 8 232 M 4 232 L 4 240 M 8 232 L 16 232 M 8 232 L 16 232 L 24 232 M 16 232 L 24 232 L 32 232 M 24 232 L 32 232 M 36 232 L 32 232 M 36 232 L 40 232 M 36 232 L 36 240 M 40 232 L 48 232 M 40 232 L 48 232 L 56 232 M 48 232 L 56 232 L 64 232 M 56 232 L 64 232 M 68 232 L 64 232 M 68 232 L 72 232 M 68 232 L 68 240 M 72 232 L 80 232 M 72 232 L 80 232 L 88 232 M 80 232 L 88 232 L 96 232 M 88 232 L 96 232 M 100 232 L 96 232 M 100 232 L 104 232 M 100 232 L 100 240 M 104 232 L 112 232 M 104 232 L 112 232 L 120 232 M 112 232 L 120 232 L 128 232 M 120 232 L 128 232 M 132 232 L 128 232 M 132 232 L 136 232 M 132 232 L 132 240 M 136 232 L 144 232 M 136 232 L 144 232 L 152 232 M 144 232 L 152 232 L 160 232 M 152 232 L 160 232 M 164 232 L 160 232 M 164 232 L 164 240 M 4 240 L 4 256 M 4 240 L 4 256 M 36 240 L 36 256 M 36 240 L 36 256 M 68 240 L 68 256 M 68 240 L 68 256 M 100 240 L 100 256 M 100 240 L 100 256 M 132 240 L 132 256 M 132 240 L 132 256 M 164 240 L 164 256 M 164 240 L 164 256 M 4 264 L 4 256 M 4 264 L 8 264 L 16 264 M 8 264 L 16 264 L 24 264 M 16 264 L 24 264 L 32 264 M 24 264 L 32 264 M 36 264 L 36 256 M 36 264 L 32 264 M 36 264 L 40 264 L 48 264 M 40 264 L 48 264 L 56 264 M 48 264 L 56 264 L 64 264 M 56 264 L 64 264 M 68 264 L 68 256 M 68 264 L 64 264 M 68 264 L 72 264 L 80 264 M 72 264 L 80 264 L 88 264 M 80 264 L 88 264 L 96 264 M 88 264 L 96 264 M 100 264 L 100 256 M 100 264 L 96 264 M 100 264 L 104 264 L 112 264 M 104 264 L 112 264 L 120 264 M 112 264 L 120 264 L 128 264 M 120 264 L 128 264 M 132 264 L 132 256 M 132 264 L 128 264 M 132 264 L 136 264 L 144 264 M 136 264 L 144 264 L 152 264 M 144 264 L 152 264 L 160 264 M 152 264 L 160 264 M 164 264 L 164 256 M 164 264 L 160 264 M 84 288 L 84 304 M 84 288 L 84 304 M 4 360 L 8 360 M 4 360 L 4 368 M 8 360 L 16 360 M 8 360 L 16 360 L 24 360 M 16 360 L 24 360 L 32 360 M 24 360 L 32 360 M 36 360 L 32 360 M 36 360 L 40 360 M 36 360 L 36 368 M 40 360 L 48 360 M 40 360 L 48 360 L 56 360 M 48 360 L 56 360 L 64 360 M 56 360 L 64 360 M 68 360 L 64 360 M 68 360 L 68 368 M 100 360 L 104 360 M 100 360 L 100 368 M 104 360 L 112 360 M 104 360 L 112 360 L 120 360 M 112 360 L 120 360 L 128 360 M 120 360 L 128 360 M 132 360 L 128 360 M 132 360 L 136 360 M 132 360 L 132 368 M 136 360 L 144 360 M 136 360 L 144 360 L 152 360 M 144 360 L 152 360 L 160 360 M 152 360 L 160 360 M 164 360 L 160 360 M 164 360 L 164 368 M 4 368 L 4 384 M 4 368 L 4 384 M 36 368 L 36 384 M 36 368 L 36 384 M 68 368 L 68 384 M 68 368 L 68 384 M 100 368 L 100 384 M 100 368 L 100 384 M 132 368 L 132 384 M 132 368 L 132 384 M 164 368 L 164 384 M 164 368 L 164 384 M 4 392 L 4 384 M 4 392 L 8 392 L 16 392 M 8 392 L 16 392 L 24 392 M 16 392 L 24 392 L 32 392 M 24 392 L 32 392 M 36 392 L 36 384 M 36 392 L 32 392 M 36 392 L 40 392 L 48 392 M 40 392 L 48 392 L 56 392 M 48 392 L 56 392 L 64 392 M 56 392 L 64 392 M 68 392 L 68 384 M 68 392 L 64 392 M 100 392 L 100 384 M 100 392 L 104 392 L 112 392 M 104 392 L 112 392 L 120 392 M 112 392 L 120 392 L 128 392 M 120 392 L 128 392 M 132 392 L 132 384 M 132 392 L 128 392 M 132 392 L 136 392 L 144 392 M 136 392 L 144 392 L 152 392 M 144 392 L 152 392 L 160 392 M 152 392 L 160 392 M 164 392 L 164 384 M 164 392 L 160 392 M 20 416 L 20 432 M 20 416 L 20 432 M 116 416 L 116 432 M 116 416 L 116 432" fill="none"/>
<path d="" fill="none" stroke-dasharray="3 3"/>
<line marker-end="url(#triangle)" x1="20" x2="20" y1="160" y2="148"/>
<line marker-end="url(#triangle)" x1="84" x2="84" y1="288" y2="276"/>
<line marker-end="url(#triangle)" x1="20" x2="20" y1="416" y2="404"/>
<line marker-end="url(#triangle)" x1="116" x2="116" y1="416" y2="404"/>
<text x="1" y="12">
1.
</text>
<text x="17" y="44">
5
</text>
<text x="49" y="44">
2
</text>
<text x="81" y="44">
9
</text>
<text x="113" y="44">
4
</text>
<text x="145" y="44">
7
</text>
<text x="1" y="92">
2.
</text>
<text x="17" y="124">
5
</text>
<text x="49" y="124">
2
</text>
<text x="81" y="124">
9
</text>
<text x="113" y="124">
4
</text>
<text x="145" y="124">
7
</text>
<text x="1" y="188">
pivot
</text>
<text x="1" y="220">
3.
</text>
<text x="17" y="252">
4
</text>
<text x="49" y="252">
2
</text>
<text x="81" y="252">
5
</text>
<text x="113" y="252">
9
</text>
<text x="145" y="252">
7
</text>
<text x="65" y="316">
pivot
</text>
<text x="1" y="348">
4.
</text>
<text x="17" y="380">
4
</text>
<text x="49" y="380">
2
</text>
<text x="113" y="380">
9
</text>
<text x="145" y="380">
7
</text>
<text x="1" y="444">
pivot
</text>
<text x="97" y="444">
pivot
</text>
</svg>
